<svg id="Capa_1" enable-background="new 0 0 512 512" height="512" viewBox="0 0 512 512" width="512" xmlns="http://www.w3.org/2000/svg" fill="#deb513"><g><g><path d="m258.469 419.977c.942-.242 1.842-.609 2.677-1.11l69.222-41.7 29.831 29.603c1.873 1.859 4.405 2.902 7.044 2.902h77.583c5.522 0 10-4.477 10-10s-4.478-10-10-10h-73.464l-23.327-23.148 42.651-25.693c3.003-1.81 4.84-5.06 4.84-8.566v-152.53c0-3.458-1.88-6.782-4.84-8.566l-129.54-78.036c-3.174-1.912-7.146-1.912-10.32 0l-69.212 41.694-29.84-29.623c-1.873-1.86-4.405-2.903-7.045-2.903h-77.583c-5.522 0-10 4.477-10 10s4.478 10 10 10h73.462l23.339 23.169-42.661 25.7c-2.96 1.784-4.84 5.108-4.84 8.566v31.351c0 5.523 4.478 10 10 10s10-4.477 10-10v-13.655l109.54 65.964v129.208l-109.54-65.988v-25.729c0-5.523-4.478-10-10-10s-10 4.477-10 10v31.379c0 3.506 1.836 6.756 4.84 8.566l129.54 78.036c2.279 1.369 5.068 1.769 7.643 1.109zm117.057-93.363-42.132 25.38-29.206-28.982c-3.92-3.89-10.252-3.866-14.143.054-3.89 3.92-3.865 10.252.055 14.142l25.626 25.43-49.741 29.964v-129.207l109.541-65.965zm-153.654-151.821-25.621-25.435 59.734-35.985 110.158 66.36-110.158 66.337-110.158-66.336 32.757-19.733 29.198 28.986c1.95 1.937 4.498 2.903 7.045 2.903 2.571 0 5.142-.986 7.097-2.955 3.89-3.919 3.868-10.251-.052-14.142z"/><path d="m90.645 164.536c5.522 0 10-4.477 10-10s-4.478-10-10-10h-23.499c-5.522 0-10 4.477-10 10s4.478 10 10 10z"/><path d="m57.146 70.093c0 5.523 4.478 10 10 10h77.583c5.522 0 10-4.477 10-10s-4.478-10-10-10h-77.583c-5.523 0-10 4.477-10 10z"/><path d="m444.826 367.464c5.522 0 10-4.477 10-10s-4.478-10-10-10h-23.471c-5.522 0-10 4.477-10 10s4.478 10 10 10z"/><path d="m454.826 441.878c0-5.523-4.478-10-10-10h-77.583c-5.522 0-10 4.477-10 10s4.478 10 10 10h77.583c5.523 0 10-4.477 10-10z"/><path d="m10 135.595c5.522 0 10-4.477 10-10v-105.595h105.595c5.522 0 10-4.477 10-10s-4.478-10-10-10h-115.595c-5.522 0-10 4.477-10 10v115.595c0 5.523 4.478 10 10 10z"/><path d="m502 0h-115.623c-5.522 0-10 4.477-10 10s4.478 10 10 10h105.623v105.595c0 5.523 4.478 10 10 10s10-4.477 10-10v-115.595c0-5.523-4.478-10-10-10z"/><path d="m125.595 492h-105.595v-105.623c0-5.523-4.478-10-10-10s-10 4.477-10 10v115.623c0 5.523 4.478 10 10 10h115.595c5.522 0 10-4.477 10-10s-4.478-10-10-10z"/><path d="m502 376.377c-5.522 0-10 4.477-10 10v105.623h-105.623c-5.522 0-10 4.477-10 10s4.478 10 10 10h115.623c5.522 0 10-4.477 10-10v-115.623c0-5.523-4.478-10-10-10z"/><path d="m126.445 266.014c5.522 0 10-4.505 10-10.028s-4.478-10-10-10-10 4.477-10 10v.057c0 5.522 4.478 9.971 10 9.971z"/></g></g></svg>