<svg id="_x31_px" enable-background="new 0 0 24 24" height="512" viewBox="0 0 24 24" width="512" xmlns="http://www.w3.org/2000/svg" fill="#deb513"><g><path d="m20.5 6c-1.378 0-2.5-1.122-2.5-2.5s1.122-2.5 2.5-2.5 2.5 1.122 2.5 2.5-1.122 2.5-2.5 2.5zm0-4c-.827 0-1.5.673-1.5 1.5s.673 1.5 1.5 1.5 1.5-.673 1.5-1.5-.673-1.5-1.5-1.5z"/></g><g><g><path d="m21.89 6.645c-.17 0-.336-.087-.43-.244-.163-.273-.338-.54-.525-.797-.162-.224-.112-.536.111-.698.224-.162.536-.112.698.111.204.282.396.572.575.872.141.237.063.544-.174.686-.08.047-.168.07-.255.07z"/></g><g><path d="m12.052 24c-.275 0-.499-.223-.5-.498-.001-.276.221-.502.498-.502.644-.003 1.288-.062 1.916-.175.274-.051.532.132.581.403.049.272-.132.532-.403.581-.685.124-1.388.188-2.089.19-.002.001-.003.001-.003.001zm-2.004-.165c-.028 0-.056-.002-.085-.007-.69-.118-1.373-.298-2.029-.535-.26-.093-.395-.38-.301-.64.093-.26.379-.396.64-.301.602.216 1.227.381 1.859.49.272.046.455.305.408.577-.041.244-.252.416-.492.416zm5.946-.548c-.203 0-.394-.125-.469-.327-.096-.259.036-.546.295-.642.599-.222 1.183-.499 1.736-.823.239-.141.545-.06.684.178.14.238.06.544-.178.684-.604.354-1.242.657-1.896.898-.056.022-.114.032-.172.032zm-9.716-.809c-.084 0-.17-.021-.249-.066-.606-.348-1.185-.752-1.721-1.201-.212-.177-.24-.492-.063-.704s.491-.241.704-.063c.492.411 1.022.781 1.578 1.1.239.138.322.443.185.683-.092.161-.26.251-.434.251zm13.17-1.217c-.141 0-.282-.06-.381-.176-.179-.21-.153-.526.057-.705.488-.416.943-.876 1.352-1.37.177-.212.491-.241.704-.066.213.176.242.492.066.704-.446.538-.941 1.041-1.474 1.494-.094.08-.209.119-.324.119zm-16.243-1.353c-.143 0-.284-.061-.383-.178-.451-.535-.857-1.112-1.208-1.715-.139-.239-.057-.545.182-.684.24-.139.545-.057.684.182.321.553.693 1.082 1.107 1.573.178.211.151.526-.06.705-.094.078-.209.117-.322.117zm18.798-1.733c-.084 0-.169-.021-.247-.065-.24-.137-.324-.442-.188-.682.317-.558.586-1.146.8-1.749.092-.261.378-.398.638-.304.26.092.396.378.304.638-.233.659-.527 1.301-.874 1.909-.09.162-.259.253-.433.253zm-20.809-1.731c-.204 0-.396-.125-.47-.329-.24-.656-.423-1.338-.543-2.027-.047-.272.134-.531.406-.579.277-.046.531.135.579.406.11.631.278 1.255.498 1.857.095.259-.039.546-.298.641-.057.021-.115.031-.172.031zm22.15-2.045c-.027 0-.055-.002-.083-.007-.272-.045-.457-.303-.411-.575.1-.597.15-1.209.15-1.817-.004-.276.217-.552.493-.556.289.011.503.168.507.444v.112c0 .663-.055 1.33-.163 1.981-.041.245-.253.418-.493.418zm-22.844-1.9c-.276 0-.5-.224-.5-.5 0-.701.061-1.404.181-2.089.048-.272.306-.45.579-.406.272.048.454.307.406.579-.11.627-.166 1.272-.166 1.916 0 .276-.224.5-.5.5zm22.806-2.105c-.236 0-.446-.168-.491-.409-.117-.63-.291-1.253-.517-1.852-.098-.258.033-.547.291-.645.259-.098.547.033.645.291.247.654.437 1.334.565 2.022.05.271-.129.533-.4.583-.032.007-.063.01-.093.01zm-22.111-1.84c-.057 0-.115-.01-.171-.03-.259-.095-.393-.382-.298-.642.239-.655.539-1.295.891-1.9.138-.239.444-.32.683-.181s.32.444.181.683c-.322.555-.597 1.141-.816 1.741-.074.203-.266.329-.47.329zm2.012-3.465c-.114 0-.228-.039-.322-.118-.211-.178-.238-.494-.06-.705.45-.534.951-1.031 1.487-1.48.213-.177.527-.147.704.064.177.212.149.527-.063.705-.492.41-.951.867-1.364 1.356-.099.117-.24.178-.382.178zm3.075-2.568c-.173 0-.342-.09-.434-.251-.138-.24-.055-.545.185-.683.606-.348 1.246-.645 1.903-.881.261-.097.546.041.64.301s-.041.546-.301.64c-.602.217-1.189.488-1.744.807-.079.045-.164.067-.249.067zm9.715-.804c-.058 0-.117-.01-.175-.032-.599-.223-1.222-.395-1.854-.509-.271-.049-.452-.31-.403-.582.049-.271.307-.451.582-.403.689.125 1.371.313 2.025.557.259.096.39.384.293.643-.075.202-.266.326-.468.326zm-5.948-.552c-.239 0-.451-.172-.492-.416-.047-.272.136-.531.408-.577.67-.115 1.326-.183 2.035-.172.276 0 .527.224.527.5 0 .279-.207.487-.482.5-.676 0-1.301.053-1.911.157-.029.005-.057.008-.085.008z"/></g><g><path d="m18.689 3.16c-.102 0-.204-.031-.293-.095-.257-.187-.523-.362-.796-.525-.237-.142-.315-.449-.174-.686.142-.237.448-.316.686-.174.3.179.59.371.872.575.224.162.273.475.111.698-.098.135-.251.207-.406.207z"/></g></g><g><path d="m12 19c-3.86 0-7-3.14-7-7s3.14-7 7-7 7 3.14 7 7-3.14 7-7 7zm0-13c-3.309 0-6 2.691-6 6s2.691 6 6 6 6-2.691 6-6-2.691-6-6-6z"/></g><g><path d="m6.097 15.012-.097-.992c.154-.033.369-.144.544-.312.206-.212.326-.497.326-.788.012-.521.185-.999.499-1.392.344-.413.785-.679 1.283-.778.778-.168 1.348-.871 1.348-1.67v-.6c0-.783-.371-1.531-.992-2.001l.604-.797c.869.657 1.388 1.704 1.388 2.798v.6c0 1.267-.902 2.381-2.145 2.649-.279.056-.522.204-.712.431-.17.213-.267.482-.273.771 0 .541-.22 1.072-.621 1.486-.332.319-.726.52-1.152.595z"/></g><g><path d="m11.591 18.814-.88-1.09c-1.021-1.259-.93-3.081.213-4.236.796-.794 2.028-1.066 3.108-.644l.331.13c.387.155.833.02 1.061-.322.394-.613 1.247-.851 1.962-.448l1.223.737-.517.856-1.21-.73c-.076-.042-.162-.067-.242-.067-.094 0-.268.026-.38.201-.493.74-1.445 1.031-2.266.704l-.327-.129c-.714-.28-1.519-.096-2.034.418-.782.791-.845 2.039-.145 2.902l.881 1.091z"/></g><g><path d="m15.91 11c-.897 0-1.708-.461-2.169-1.234-1.479-2.02-.315-4.107-.265-4.195l.868.497c-.036.063-.885 1.621.229 3.146.341.567.925.838 1.524.77l2.092-.251.119.993-2.08.25c-.119.014-.213.024-.318.024z"/></g></svg>